<mxfile host="Electron" modified="2023-07-30T14:21:14.643Z" agent="Mozilla/5.0 (Windows NT 10.0; Win64; x64) AppleWebKit/537.36 (KHTML, like Gecko) draw.io/21.6.5 Chrome/114.0.5735.243 Electron/25.3.1 Safari/537.36" etag="6daIJoTFan4UboqLtpBP" version="21.6.5" type="device">
  <diagram name="Page-1" id="Vk_Niz2AyBnfQhpY7yYg">
    <mxGraphModel dx="864" dy="495" grid="1" gridSize="10" guides="1" tooltips="1" connect="1" arrows="1" fold="1" page="1" pageScale="1" pageWidth="1169" pageHeight="827" background="none" math="0" shadow="0">
      <root>
        <mxCell id="0" />
        <mxCell id="1" parent="0" />
        <mxCell id="R3yVUXhyxKgnDyTH9QMw-3" value="Program" style="shape=folder;fontStyle=1;tabWidth=50;tabHeight=20;tabPosition=left;html=1;boundedLbl=1;whiteSpace=wrap;fillColor=none;fontColor=#ffffff;labelBorderColor=none;labelBackgroundColor=none;strokeColor=#ffffff;shadow=0;" parent="1" vertex="1">
          <mxGeometry y="160" width="150" height="80" as="geometry" />
        </mxCell>
        <mxCell id="R3yVUXhyxKgnDyTH9QMw-4" value="Types" style="shape=folder;fontStyle=1;tabWidth=110;tabHeight=30;tabPosition=left;html=1;boundedLbl=1;labelInHeader=1;container=1;collapsible=0;recursiveResize=0;whiteSpace=wrap;fillColor=none;fontColor=#ffffff;labelBorderColor=none;labelBackgroundColor=none;strokeColor=#ffffff;shadow=0;" parent="1" vertex="1">
          <mxGeometry x="240" width="230" height="240" as="geometry" />
        </mxCell>
        <mxCell id="R3yVUXhyxKgnDyTH9QMw-5" value="«datatype»&lt;br&gt;&lt;b&gt;String&lt;/b&gt;" style="html=1;whiteSpace=wrap;fillColor=none;fontColor=#ffffff;labelBorderColor=none;labelBackgroundColor=none;strokeColor=#ffffff;shadow=0;" parent="R3yVUXhyxKgnDyTH9QMw-4" vertex="1">
          <mxGeometry width="110" height="50" relative="1" as="geometry">
            <mxPoint x="20" y="50" as="offset" />
          </mxGeometry>
        </mxCell>
        <mxCell id="R3yVUXhyxKgnDyTH9QMw-7" value="«datatype»&lt;br&gt;&lt;b&gt;Integer&lt;/b&gt;" style="html=1;whiteSpace=wrap;fillColor=none;fontColor=#ffffff;labelBorderColor=none;labelBackgroundColor=none;strokeColor=#ffffff;shadow=0;" parent="R3yVUXhyxKgnDyTH9QMw-4" vertex="1">
          <mxGeometry x="99" y="110" width="110" height="50" as="geometry" />
        </mxCell>
        <mxCell id="R3yVUXhyxKgnDyTH9QMw-8" value="«datatype»&lt;br&gt;&lt;b&gt;Time&lt;/b&gt;" style="html=1;whiteSpace=wrap;fillColor=none;fontColor=#ffffff;labelBorderColor=none;labelBackgroundColor=none;strokeColor=#ffffff;shadow=0;" parent="R3yVUXhyxKgnDyTH9QMw-4" vertex="1">
          <mxGeometry x="20" y="170" width="110" height="50" as="geometry" />
        </mxCell>
        <mxCell id="R3yVUXhyxKgnDyTH9QMw-10" value="«access»" style="endArrow=open;startArrow=none;endFill=0;startFill=0;endSize=8;html=1;verticalAlign=bottom;dashed=1;labelBackgroundColor=none;rounded=0;exitX=0;exitY=0;exitDx=150;exitDy=35;exitPerimeter=0;entryX=0;entryY=0.5;entryDx=0;entryDy=0;fontColor=#ffffff;labelBorderColor=none;strokeColor=#ffffff;shadow=0;" parent="1" source="R3yVUXhyxKgnDyTH9QMw-3" target="R3yVUXhyxKgnDyTH9QMw-5" edge="1">
          <mxGeometry x="-0.2481" y="15" width="160" relative="1" as="geometry">
            <mxPoint x="320" y="130" as="sourcePoint" />
            <mxPoint x="480" y="130" as="targetPoint" />
            <mxPoint x="1" as="offset" />
          </mxGeometry>
        </mxCell>
        <mxCell id="R3yVUXhyxKgnDyTH9QMw-12" value="«import»" style="endArrow=open;startArrow=none;endFill=0;startFill=0;endSize=8;html=1;verticalAlign=bottom;dashed=1;labelBackgroundColor=none;rounded=0;exitX=0;exitY=0;exitDx=150;exitDy=50;exitPerimeter=0;entryX=0;entryY=0.5;entryDx=0;entryDy=0;fontColor=#ffffff;labelBorderColor=none;strokeColor=#ffffff;shadow=0;" parent="1" source="R3yVUXhyxKgnDyTH9QMw-3" target="R3yVUXhyxKgnDyTH9QMw-8" edge="1">
          <mxGeometry width="160" relative="1" as="geometry">
            <mxPoint x="320" y="130" as="sourcePoint" />
            <mxPoint x="480" y="130" as="targetPoint" />
          </mxGeometry>
        </mxCell>
      </root>
    </mxGraphModel>
  </diagram>
</mxfile>
